<?xml version="1.0" encoding="UTF-8" standalone="no"?>
<!-- Created with Inkscape (http://www.inkscape.org/) -->

<svg
   xmlns:dc="http://purl.org/dc/elements/1.1/"
   xmlns:cc="http://creativecommons.org/ns#"
   xmlns:rdf="http://www.w3.org/1999/02/22-rdf-syntax-ns#"
   xmlns:svg="http://www.w3.org/2000/svg"
   xmlns="http://www.w3.org/2000/svg"
   xmlns:sodipodi="http://sodipodi.sourceforge.net/DTD/sodipodi-0.dtd"
   xmlns:inkscape="http://www.inkscape.org/namespaces/inkscape"
   width="60mm"
   height="60mm"
   viewBox="0 0 60 60"
   version="1.1"
   id="svg8"
   inkscape:version="0.92.5 (2060ec1f9f, 2020-04-08)"
   sodipodi:docname="logo.svg"
   inkscape:export-filename="/home/kristian/projects/space/frontend/logo.png"
   inkscape:export-xdpi="50.799999"
   inkscape:export-ydpi="50.799999">
  <defs
     id="defs2">
    <clipPath
       clipPathUnits="userSpaceOnUse"
       id="clipPath954">
      <rect
         style="fill:#80b940;fill-opacity:1;stroke:#b3d789;stroke-width:0.79374999;stroke-linecap:butt;stroke-linejoin:round;stroke-miterlimit:4;stroke-dasharray:none;stroke-dashoffset:0;stroke-opacity:1"
         id="rect956"
         width="208.64285"
         height="144.3869"
         x="-45.357143"
         y="79.285713"
         ry="2.1571612" />
    </clipPath>
  </defs>
  <sodipodi:namedview
     id="base"
     pagecolor="#ffffff"
     bordercolor="#666666"
     borderopacity="1.0"
     inkscape:pageopacity="0"
     inkscape:pageshadow="2"
     inkscape:zoom="1.4"
     inkscape:cx="-127.1733"
     inkscape:cy="32.350399"
     inkscape:document-units="mm"
     inkscape:current-layer="g1015"
     showgrid="false"
     inkscape:window-width="1608"
     inkscape:window-height="986"
     inkscape:window-x="72"
     inkscape:window-y="27"
     inkscape:window-maximized="1" />
  <metadata
     id="metadata5">
    <rdf:RDF>
      <cc:Work
         rdf:about="">
        <dc:format>image/svg+xml</dc:format>
        <dc:type
           rdf:resource="http://purl.org/dc/dcmitype/StillImage" />
        <dc:title></dc:title>
      </cc:Work>
    </rdf:RDF>
  </metadata>
  <g
     inkscape:label="Layer 1"
     inkscape:groupmode="layer"
     id="layer1"
     transform="translate(0,-237)">
    <g
       id="g4768"
       transform="translate(-2.6998731,-13.607143)">
      <g
         style="fill:#3964c6;fill-opacity:1"
         transform="matrix(0.06583443,0,0,0.06583443,16.484926,263.16653)"
         id="g1015">
        <path
           style="fill:#f79c31;fill-opacity:1;stroke:#000000;stroke-width:22.28095818"
           inkscape:connector-curvature="0"
           d="M 460.9683,303.21353 260.68404,63.822929 259.11979,62.258679 C 168.36992,-28.491186 49.46231,-84.822788 -77.273889,-97.335054 c -9.391242,0 -18.7772,3.128507 -25.033331,9.39124 -6.25702,6.257013 -9.38552,15.6484 -9.38552,25.033334 12.519891,126.733269 68.84533,245.6394 158.024196,336.39367 l 1.564253,1.56425 240.945471,198.71474 c 6.25702,4.69275 12.5199,7.82126 20.34087,7.82126 7.82097,0 15.64841,-3.12851 21.906,-9.38553 l 42.24687,-42.24686 4.69276,4.69277 c 6.25701,6.257 14.08414,9.38551 21.906,9.38551 7.82127,0 15.6484,-3.12851 21.906,-9.38551 12.51989,-12.51991 12.51989,-31.29094 0,-43.81054 l -4.69276,-4.69276 42.24687,-42.24686 c 10.94977,-10.94978 10.94977,-28.16214 1.56425,-40.68174 z"
           id="path1001" />
        <path
           style="fill:#f79c31;fill-opacity:1;stroke-width:1.4668541"
           inkscape:connector-curvature="0"
           d="m 412.47411,511.31614 32.8546,34.42559"
           id="path1003" />
        <path
           style="fill:#f79c31;fill-opacity:1;stroke:#000000;stroke-width:22.28095818"
           inkscape:connector-curvature="0"
           d="m 445.33164,575.46167 c -7.82126,0 -15.6484,-3.12851 -21.906,-9.38553 l -34.41973,-34.41972 c -12.51989,-12.5199 -12.51989,-31.29094 0,-43.81055 12.51989,-12.51989 31.29093,-12.51989 43.81053,0 l 34.41974,34.41974 c 12.51989,12.5199 12.51989,31.29094 0,43.81053 -6.25702,6.25702 -14.08415,9.38553 -21.906,9.38553 z"
           id="path1005" />
        <path
           style="fill:#f79c31;fill-opacity:1;stroke-width:1.4668541"
           inkscape:connector-curvature="0"
           d="m 496.96491,425.2558 34.42559,34.41973"
           id="path1007" />
        <path
           style="fill:#f79c31;fill-opacity:1;stroke:#000000;stroke-width:22.28095818"
           inkscape:connector-curvature="0"
           d="m 531.3773,490.97087 c -7.82126,0 -15.64839,-3.12851 -21.906,-9.38553 l -34.42559,-34.41973 c -12.51989,-12.51989 -12.51989,-31.29093 0,-43.81053 12.51989,-12.51989 31.29092,-12.51989 43.81053,0 l 34.41973,34.41973 c 12.5199,12.51989 12.5199,31.29094 0,43.81053 -6.25701,6.25702 -14.07842,9.38553 -21.90013,9.38553 z"
           id="path1009" />
        <path
           style="fill:#f79c31;fill-opacity:1;stroke:#000000;stroke-width:22.28095818"
           inkscape:connector-curvature="0"
           d="m 54.16563,357.9712 c -26.598466,82.9286 -1.564253,179.939 71.97268,269.10907 6.25702,7.82126 14.08415,10.94976 23.46966,10.94976 h 1.56426 c 9.38552,0 18.7772,-6.25701 23.46966,-14.08414 l 67.28021,-107.9634 z"
           id="path1011" />
        <path
           style="fill:#f79c31;fill-opacity:1;stroke:#000000;stroke-width:22.28095818"
           inkscape:connector-curvature="0"
           d="M 615.8681,145.18934 C 573.62124,93.557539 514.16818,62.260729 448.45604,56.003134 c -35.9834,-4.692761 -71.97266,0 -104.82873,10.949775 l 158.0242,189.326871 106.39826,-67.28021 c 7.82127,-4.69275 12.51989,-12.51989 14.08415,-20.34086 1.55853,-7.82126 -0.006,-17.2062 -6.26846,-23.4638 z"
           id="path1013" />
      </g>
      <g
         id="g880"
         transform="matrix(1.092029,0,0,1.092029,-9.1164029,-22.755517)" />
    </g>
  </g>
</svg>
